<svg width="139" height="36" viewBox="0 0 139 36" fill="none" xmlns="http://www.w3.org/2000/svg">
<path fill-rule="evenodd" clip-rule="evenodd" d="M13.4247 19.4188H8.37923L11.0596 10.6099L13.4247 19.4188ZM6.01419 28.3232L7.59088 22.955H14.0554L15.632 28.3232H20.9928L15.3167 7.94978C15.0014 6.61173 14.3707 6.18164 12.9517 6.18164H5.06817V8.01349H5.69885C6.64487 8.01349 7.11788 8.31615 7.11788 9.04889C7.11788 9.51084 7.11788 9.81349 6.64487 10.9126L0.96875 28.3232" fill="#333333"/>
<path d="M27.7706 28.3232V7.80642C27.7706 6.73916 27.1399 6.18164 26.0362 6.18164H21.1484V8.01349H21.4638C22.4098 8.01349 22.8828 8.41172 22.8828 9.2719V28.3232" fill="#333333"/>
<path d="M36.6065 28.3232V7.80642C36.6065 6.73916 35.9758 6.18164 34.8721 6.18164H29.9844V8.01349H30.2997C31.2457 8.01349 31.7187 8.41172 31.7187 9.2719V28.3232" fill="#333333"/>
<path fill-rule="evenodd" clip-rule="evenodd" d="M45.5909 8.1406C45.5909 6.67512 44.4872 5.81494 42.7528 5.81494C40.8608 5.81494 39.9148 6.67512 39.9148 8.1406C39.9148 9.63794 40.8608 10.514 42.7528 10.514C44.4872 10.514 45.5909 9.63794 45.5909 8.1406ZM45.4332 28.3228V13.3813C45.4332 12.3459 44.8025 11.7406 43.8565 11.7406H38.9688V13.5406H39.2841C40.2301 13.5406 40.5455 13.9388 40.5455 14.8468V28.3228" fill="#333333"/>
<path fill-rule="evenodd" clip-rule="evenodd" d="M57.0966 20.2791V23.5924C56.1505 24.5481 55.0469 25.0897 54.1008 25.0897C53.1548 25.0897 52.6818 24.6278 52.6818 23.3853C52.6818 22.0154 52.9971 21.4897 54.1008 21.0596C54.8892 20.7251 55.6775 20.518 57.0966 20.2791ZM50.1591 16.3127L50.6321 16.1216C51.8935 15.6119 52.6818 15.4207 53.6278 15.2455C54.1008 15.1818 54.7315 15.1181 55.0469 15.1181C56.6236 15.1181 57.0966 15.6437 57.0966 17.1092V17.5234C54.8892 17.8897 54.2585 18.0172 52.9971 18.288C52.3665 18.4472 51.7358 18.6543 51.1051 18.9251C49.0554 19.7534 48.1094 21.3464 48.1094 23.8472C48.1094 26.9853 49.3707 28.4826 52.2088 28.4826C53.3125 28.4826 54.4162 28.2278 55.2045 27.718C55.9929 27.3516 56.3082 27.1605 57.2542 26.2844V26.7941C57.2542 27.8295 57.7272 28.3233 58.6733 28.3233H63.4034V26.6189H63.2457C62.2997 26.6189 61.8267 26.1888 61.8267 25.3286V17.1888C61.8267 12.9517 60.4076 11.5181 56.3082 11.5181C54.8892 11.5181 53.6278 11.6774 52.3665 11.98C51.1051 12.2827 50.4744 12.5057 49.0554 13.2543" fill="#333333"/>
<path fill-rule="evenodd" clip-rule="evenodd" d="M70.8082 28.3227V17.0767C71.9119 16.0413 72.7003 15.6431 73.8039 15.6431C74.9076 15.6431 75.223 16.121 75.223 17.8095V28.3227H80.1107V17.013C80.1107 14.6874 79.7954 13.6838 79.1647 12.8077C78.3764 11.9475 77.4304 11.5493 76.0113 11.5493C74.1193 11.5493 72.7003 12.2502 70.4929 14.1776V13.2856C70.4929 12.2502 70.0199 11.7405 69.0738 11.7405H64.3438V13.5405H64.5014C65.4474 13.5405 65.9205 13.9387 65.9205 14.8467V28.3227" fill="#333333"/>
<mask id="mask0_10567_22922" style="mask-type:luminance" maskUnits="userSpaceOnUse" x="0" y="0" width="139" height="36">
<path d="M0.976562 5.34058e-05H138.622V36H0.976562V5.34058e-05Z" fill="white"/>
</mask>
<g mask="url(#mask0_10567_22922)">
<path d="M95.2464 25.1524H87.9936L94.9309 15.1488V11.74H84.5248C83.2634 11.74 82.7904 12.2497 82.7904 13.4763V16.4869H84.5248V16.1524C84.5248 15.2444 84.9978 14.8781 85.9438 14.8781H89.728L82.6328 24.8815V28.3223H95.2464" fill="#333333"/>
<path fill-rule="evenodd" clip-rule="evenodd" d="M123.15 27.4142V8.64957C123.15 7.1363 122.52 6.64248 121.101 6.64248H116.844V8.71335H117.317C118.105 8.71335 118.42 9.01594 118.42 9.93983V27.4142H123.15ZM125.673 27.4142H130.246V13.2531C130.246 11.8195 129.615 11.246 128.196 11.246H125.673V27.4142ZM115.898 27.4142V11.246H113.375C111.956 11.246 111.325 11.8195 111.325 13.2531V27.4142H115.898ZM135.606 17.9841C135.606 26.7611 129.3 33.1646 120.785 33.1646C112.271 33.1646 105.964 26.7611 105.964 17.9841C105.964 9.20717 112.271 2.8036 120.785 2.8036C129.3 2.8036 135.606 9.20717 135.606 17.9841ZM138.602 17.9841C138.602 7.70983 131.034 5.34058e-05 120.785 5.34058e-05C110.694 5.34058e-05 102.969 7.70983 102.969 17.9841C102.969 28.2903 110.694 36 120.785 36C131.034 36 138.602 28.2903 138.602 17.9841Z" fill="#333333"/>
</g>
</svg>
