<svg width="154" height="34" viewBox="0 0 154 34" fill="none" xmlns="http://www.w3.org/2000/svg">
<path fill-rule="evenodd" clip-rule="evenodd" d="M66.1715 16.4717C67.0943 16.1147 67.8861 15.4842 68.4407 14.6648C68.9954 13.8454 69.2866 12.8761 69.2752 11.8866C69.2752 7.76002 66.3478 5.71436 62.327 5.71436H51.7812V28.1532H63.244C66.7711 28.1532 70.2275 25.6843 70.2275 21.9104C70.2275 17.424 66.1715 16.5141 66.1715 16.4717ZM57.2834 10.37H61.3747C61.6367 10.3538 61.8993 10.3894 62.1475 10.4747C62.3957 10.5601 62.6247 10.6936 62.8212 10.8676C63.0178 11.0415 63.1781 11.2525 63.293 11.4885C63.408 11.7245 63.4752 11.9808 63.4909 12.2429C63.4909 12.3228 63.4909 12.4039 63.4909 12.4862C63.4798 13.0379 63.2512 13.5628 62.8548 13.9466C62.4584 14.3304 61.9264 14.542 61.3747 14.5354H57.2481L57.2834 10.37ZM61.41 23.4552H57.3187V19.0465H61.3042C63.3146 19.0465 64.2669 19.9282 64.2669 21.2332C64.2669 22.8627 63.0677 23.4552 61.41 23.4552Z" fill="#333333"/>
<path fill-rule="evenodd" clip-rule="evenodd" d="M82.3614 5.14941C75.8717 5.14941 72.0625 10.3341 72.0625 16.8944C72.0625 23.4546 75.8717 28.6393 82.3614 28.6393C88.8511 28.6393 92.6603 23.4899 92.6603 16.8944C92.6603 10.2989 88.8864 5.14941 82.3614 5.14941ZM82.3614 23.2783C79.1871 23.2783 77.5999 20.4214 77.5999 16.8944C77.5999 13.3674 79.1871 10.5457 82.3614 10.5457C85.5357 10.5457 87.1581 13.4026 87.1581 16.8944C87.1581 20.4567 85.5357 23.2783 82.3614 23.2783Z" fill="#333333"/>
<path fill-rule="evenodd" clip-rule="evenodd" d="M104.617 14.5314L103.842 14.355C101.937 13.9671 100.42 13.4733 100.42 12.0977C100.42 10.6164 101.866 10.0168 103.136 10.0168C104.002 10.0297 104.857 10.2212 105.646 10.5792C106.435 10.9373 107.141 11.4542 107.721 12.0977L111.213 8.64127C109.626 6.84249 107.051 5.11426 103.03 5.11426C98.3041 5.11426 94.7065 7.75952 94.7065 12.1683C94.7065 16.1891 97.5987 18.1642 101.126 18.9049L101.902 19.0812C104.829 19.6808 105.922 20.1393 105.922 21.5501C105.922 22.8904 104.723 23.7722 102.889 23.7722C100.702 23.7722 98.7273 22.8199 97.2107 20.88L93.6484 24.407C95.6236 26.7701 98.1277 28.6042 102.96 28.6042C107.157 28.6042 111.636 26.2058 111.636 21.3032C111.707 16.1891 107.827 15.2015 104.617 14.5314Z" fill="#333333"/>
<path fill-rule="evenodd" clip-rule="evenodd" d="M124.191 23.2786C121.722 23.2786 119.147 21.233 119.147 16.7537C119.147 12.7681 121.545 10.5461 124.05 10.5461C126.025 10.5461 127.189 11.4631 128.106 13.0503L132.62 10.0523C130.363 6.63113 127.682 5.18506 123.979 5.18506C117.207 5.18506 113.539 10.4403 113.539 16.7889C113.539 23.455 117.595 28.675 123.908 28.675C128.353 28.675 130.469 27.1231 132.761 23.8077L128.211 20.7462C127.294 22.2205 126.307 23.2786 124.191 23.2786Z" fill="#333333"/>
<path fill-rule="evenodd" clip-rule="evenodd" d="M147.682 5.71436V13.9676H140.874V5.71436H134.984V28.1462H140.874V19.2934H147.682V28.1462H153.572V5.71436H147.682Z" fill="#333333"/>
<path d="M17.8361 0C14.4738 0 11.187 0.997044 8.39134 2.86505C5.59567 4.73306 3.41671 7.38813 2.13001 10.4945C0.843303 13.6009 0.506643 17.0191 1.1626 20.3168C1.81856 23.6145 3.43767 26.6436 5.81519 29.0212C8.19271 31.3987 11.2219 33.0178 14.5196 33.6738C17.8173 34.3297 21.2355 33.993 24.3418 32.7063C27.4482 31.4196 30.1033 29.2407 31.9713 26.445C33.8393 23.6493 34.8364 20.3625 34.8364 17.0002C34.8364 12.4915 33.0453 8.1674 29.8571 4.97924C26.669 1.79109 22.3449 0 17.8361 0ZM17.8361 32.4132C14.7877 32.4132 11.8078 31.5093 9.27312 29.8157C6.73846 28.1221 4.76293 25.7149 3.59635 22.8985C2.42977 20.0822 2.12454 16.9831 2.71926 13.9933C3.31397 11.0034 4.78192 8.25709 6.93748 6.10153C9.09303 3.94598 11.8394 2.47803 14.8292 1.88331C17.819 1.2886 20.9181 1.59383 23.7345 2.7604C26.5508 3.92698 28.958 5.90251 30.6516 8.43717C32.3452 10.9718 33.2492 13.9518 33.2492 17.0002C33.2483 21.0877 31.6241 25.0075 28.7338 27.8978C25.8435 30.7881 21.9237 32.4123 17.8361 32.4132Z" fill="#333333"/>
<path d="M24.8538 6.38379H23.6899V12.2034H12.0155V6.38379H10.8163C9.05985 7.54252 7.61836 9.11893 6.621 10.9718C5.62364 12.8246 5.10156 14.8959 5.10156 17.0001C5.10156 19.1043 5.62364 21.1756 6.621 23.0284C7.61836 24.8813 9.05985 26.4577 10.8163 27.6164H12.0155V21.8039H23.6899V27.6235H24.8538C26.611 26.4653 28.0532 24.8891 29.0511 23.0362C30.049 21.1833 30.5714 19.1117 30.5714 17.0072C30.5714 14.9026 30.049 12.831 29.0511 10.9781C28.0532 9.12523 26.611 7.54901 24.8538 6.39084V6.38379ZM10.393 25.3309C9.29917 24.359 8.40747 23.1811 7.76886 21.8645C7.13024 20.548 6.75722 19.1185 6.67108 17.6578C6.58494 16.1971 6.78738 14.7337 7.26684 13.3512C7.74629 11.9687 8.49337 10.6942 9.46542 9.60042C9.75677 9.27498 10.0665 8.96645 10.393 8.67635V25.3309ZM23.6899 20.1815H12.0155V13.7905H23.6899V20.1815ZM25.277 25.2956V21.7686V12.2034V8.67635C26.3682 9.65617 27.2556 10.8414 27.8886 12.1643C28.5215 13.4872 28.8876 14.9219 28.9659 16.3863C29.0442 17.8508 28.8331 19.3163 28.3448 20.6991C27.8565 22.082 27.1005 23.3551 26.12 24.4456C25.8533 24.7405 25.5719 25.0219 25.277 25.2886V25.2956Z" fill="#333333"/>
</svg>
