<svg width="154" height="42" viewBox="0 0 154 42" fill="none" xmlns="http://www.w3.org/2000/svg">
<path d="M7.20672 0.0372993C1.86236 0.312086 0.0234375 2.67016 0.0234375 7.19243V21.5708C0.0234375 21.5708 2.66584 19.2745 7.67286 19.2745H30.4529C34.9416 19.2745 39.4325 17.792 39.4325 12.5178V6.56083C39.4325 1.91501 37.7543 0.0372993 32.4153 0.0372993H8.33798C7.95061 0.0372993 7.56323 0.015998 7.20672 0.0372993ZM54.1641 0.402636V8.35761H57.0247C57.8441 8.35761 58.5656 8.11798 59.086 7.59183C59.9757 6.70037 59.8841 5.55755 59.8841 4.36361C59.8841 3.16967 59.9799 2.06307 59.086 1.16841C58.5656 0.643334 57.8441 0.402636 57.0247 0.402636H54.1641ZM88.9174 0.402636V8.35761H90.3466V4.79603C90.3466 4.03771 90.8234 3.79805 91.2778 3.79805C91.7354 3.79805 92.243 4.02706 92.243 4.79603V8.35761H93.6722V4.59685C93.6722 3.3699 93.006 2.46672 91.7439 2.46672C91.232 2.46672 90.734 2.69677 90.3466 3.09936V0.402636H88.9174ZM74.0847 1.00226V2.69997H73.4866V3.83108H74.0847V6.69396C74.0847 7.51832 74.603 8.35761 75.781 8.35761H76.5462V7.12639H76.0471C75.7034 7.12639 75.548 6.92935 75.548 6.59385V3.83108H76.5462V2.69997H75.548V1.00226H74.0847ZM55.6945 1.80106H56.8587C57.3897 1.80106 57.7547 1.97785 58.0218 2.30057C58.3113 2.6563 58.3549 3.15902 58.3549 4.36361C58.3549 5.57033 58.3123 6.13695 58.0218 6.49374C57.7547 6.81752 57.3897 6.99325 56.8587 6.99325H55.6945V1.80106ZM63.6088 2.46672C62.1115 2.46672 61.0814 3.56588 61.0814 5.4617C61.0814 7.8155 62.4116 8.4247 63.7759 8.4247C64.8188 8.4247 65.3828 8.1169 65.9702 7.52579L65.0721 6.6599C64.7049 7.02628 64.407 7.19243 63.7759 7.19243C62.9661 7.19243 62.5116 6.6439 62.5116 5.89516H66.1363V5.26252C66.1363 3.66599 65.2179 2.46672 63.6088 2.46672ZM80.0378 2.46672C78.8608 2.46672 77.8094 3.12493 77.8094 4.33059C77.8094 5.40098 78.4639 5.86216 79.5057 5.96121L80.4039 6.05709C80.8604 6.0997 81.0349 6.29886 81.0349 6.58963C81.0349 7.02417 80.5028 7.18814 80.0048 7.18814C79.561 7.18814 78.9502 7.10293 78.4745 6.62259L77.5104 7.58754C78.2404 8.32457 79.0619 8.42047 79.9707 8.42047C81.3361 8.42047 82.4322 7.80588 82.4322 6.52248C82.4322 5.54155 81.8459 4.9377 80.7029 4.82587L79.8047 4.72999C79.2939 4.68738 79.2067 4.44136 79.2067 4.23048C79.2067 3.94078 79.4621 3.66492 80.0378 3.66492C80.5369 3.66492 81.036 3.76078 81.368 4.06432L82.2662 3.16541C81.7139 2.6414 80.9349 2.46672 80.0378 2.46672ZM85.9238 2.46672C84.7692 2.46672 83.3634 3.1079 83.3634 5.4617C83.3634 7.8155 84.7692 8.4247 85.9238 8.4247C86.7209 8.4247 87.3424 8.16056 87.8532 7.6259L86.855 6.6599C86.5549 6.98474 86.3005 7.12639 85.9238 7.12639C85.5779 7.12639 85.3374 6.9826 85.1257 6.72699C84.9043 6.44794 84.7937 6.07518 84.7937 5.4617C84.7937 4.84822 84.9043 4.44241 85.1257 4.16443C85.3374 3.90775 85.5779 3.79805 85.9238 3.79805C86.3005 3.79805 86.5549 3.90776 86.855 4.23048L87.8532 3.26552C87.3424 2.73086 86.7209 2.46672 85.9238 2.46672ZM97.4309 2.46672C95.9347 2.46672 94.9365 3.56588 94.9365 5.4617C94.9365 7.8155 96.2327 8.4247 97.5969 8.4247C98.6388 8.4247 99.2007 8.1169 99.7913 7.52579L98.9272 6.6599C98.5622 7.02628 98.2301 7.19243 97.5969 7.19243C96.7882 7.19243 96.3327 6.6439 96.3327 5.89516H99.9584V5.26252C99.9584 3.66599 99.041 2.46672 97.4309 2.46672ZM67.3675 2.53062V6.25835C67.3675 6.8942 67.5005 7.45335 67.9656 7.92304C68.287 8.24576 68.7531 8.42255 69.3288 8.42255C69.8609 8.42255 70.3813 8.22446 70.7591 7.82293V8.35546H72.1894V2.53062H70.7261V6.05917C70.7261 6.85265 70.2164 7.12424 69.762 7.12424C69.3086 7.12424 68.8308 6.85265 68.8308 6.05917V2.53062H67.3675ZM63.6088 3.6958C64.0962 3.6958 64.4176 3.94927 64.5741 4.29542C64.6592 4.50737 64.6964 4.63625 64.7071 4.894H62.5116C62.5223 4.63625 62.5542 4.50737 62.6446 4.29542C62.799 3.94927 63.1203 3.6958 63.6088 3.6958ZM97.4309 3.6958C97.9194 3.6958 98.2408 3.94927 98.3951 4.29542C98.4909 4.50737 98.5175 4.63625 98.5281 4.894H96.3327C96.3433 4.63625 96.3752 4.50737 96.4657 4.29542C96.6232 3.94927 96.9435 3.6958 97.4309 3.6958ZM111.497 11.2844V12.4496H112.961V11.2844H111.497ZM54.1641 11.3164V19.2714H55.6945V16.1092H56.8246L58.3549 19.2714H60.1502L58.3879 15.8429C59.1552 15.5649 59.8182 14.863 59.8182 13.7468C59.8182 12.4176 58.8668 11.3164 57.2577 11.3164H54.1641ZM119.812 11.3164V19.2714H121.275V15.7098C121.275 14.9504 121.751 14.7118 122.206 14.7118C122.662 14.7118 123.138 14.9397 123.138 15.7098V19.2714H124.568V15.5106C124.568 14.2836 123.902 13.3805 122.638 13.3805C122.128 13.3805 121.661 13.5796 121.275 13.979V11.3164H119.812ZM73.8516 11.916V13.6137H73.2536V14.7448H73.8516V17.6077C73.8516 18.4331 74.372 19.2714 75.548 19.2714H76.3131V18.0401H75.814C75.4703 18.0401 75.3149 17.8442 75.3149 17.5076V14.7448H76.3131V13.6137H75.3149V11.916H73.8516ZM55.6945 12.7148H57.1577C57.8356 12.7148 58.2879 13.1344 58.2879 13.7468C58.2879 14.3603 57.8356 14.8119 57.1577 14.8119H55.6945V12.7148ZM63.3768 13.3805C61.8785 13.3805 60.8494 14.4466 60.8494 16.3424C60.8494 18.6994 62.1775 19.3384 63.5429 19.3384C64.5826 19.3384 65.1519 19.0296 65.7372 18.4395L64.8401 17.5736C64.474 17.9432 64.1739 18.1062 63.5429 18.1062C62.7309 18.1062 62.2786 17.5545 62.2786 16.8089H65.9043V16.1763C65.9043 14.5808 64.9848 13.3805 63.3768 13.3805ZM70.061 13.3805C69.5279 13.3805 69.0096 13.5796 68.6307 13.979V13.4465H67.2005V19.2714H68.6637V15.7438C68.6637 14.9514 69.1735 14.7118 69.629 14.7118C70.0823 14.7118 70.5601 14.9514 70.5601 15.7438V19.2714H72.0234V15.5436C72.0234 14.9088 71.8903 14.3827 71.4242 13.913C71.106 13.5892 70.6389 13.3805 70.061 13.3805ZM79.8047 13.3805C78.3095 13.3805 77.2773 14.4466 77.2773 16.3424C77.2773 18.6994 78.6054 19.3384 79.9707 19.3384C81.0136 19.3384 81.5756 19.0296 82.1662 18.4395L81.268 17.5736C80.904 17.9432 80.6061 18.1062 79.9707 18.1062C79.162 18.1062 78.7076 17.5545 78.7076 16.8089H82.3322V16.1763C82.3322 14.5808 81.4127 13.3805 79.8047 13.3805ZM86.4889 13.3805C85.9568 13.3805 85.4364 13.5796 85.0597 13.979V13.4465H83.6294V19.2714H85.0927V15.7438C85.0927 14.9514 85.6014 14.7118 86.0568 14.7118C86.5102 14.7118 86.988 14.9514 86.988 15.7438V19.2714H88.4513V15.5436C88.4513 14.9088 88.3193 14.3827 87.8532 13.913C87.5308 13.5892 87.0678 13.3805 86.4889 13.3805ZM97.6299 13.3805C96.1347 13.3805 95.1025 14.4466 95.1025 16.3424C95.1025 18.6994 96.3976 19.3384 97.7629 19.3384C98.8027 19.3384 99.3688 19.0296 99.9584 18.4395L99.0932 17.5736C98.7292 17.9432 98.4281 18.1062 97.7959 18.1062C96.9871 18.1062 96.5328 17.5545 96.5328 16.8089H100.124V16.1763C100.124 14.5808 99.24 13.3805 97.6299 13.3805ZM104.314 13.3805C103.695 13.3805 103.129 13.6797 102.851 14.0131V13.4465H101.455V19.2714H102.885V15.7769C102.885 15.0388 103.373 14.7118 103.816 14.7118C104.068 14.7118 104.259 14.7651 104.414 14.878L105.378 13.6798C105.069 13.4667 104.741 13.3805 104.314 13.3805ZM107.94 13.3805C106.764 13.3805 105.711 14.0397 105.711 15.2443C105.711 16.3158 106.332 16.7748 107.374 16.875L108.305 16.9708C108.761 17.0134 108.904 17.2115 108.904 17.5033C108.904 17.9379 108.374 18.1019 107.873 18.1019C107.431 18.1019 106.82 18.0167 106.344 17.5363L105.412 18.5013C106.143 19.2383 106.964 19.3341 107.873 19.3341C109.237 19.3341 110.3 18.7196 110.3 17.4362C110.3 16.4564 109.746 15.8503 108.605 15.7396L107.674 15.6437C107.161 15.6011 107.075 15.3562 107.075 15.1442C107.075 14.8545 107.33 14.5787 107.906 14.5787C108.406 14.5787 108.904 14.6745 109.236 14.9781L110.134 14.0792C109.58 13.5562 108.84 13.3805 107.94 13.3805ZM116.852 13.3805C115.698 13.3805 114.258 13.9876 114.258 16.3424C114.258 18.6994 115.698 19.3384 116.852 19.3384C117.652 19.3384 118.238 19.0754 118.748 18.5396L117.784 17.5736C117.481 17.8974 117.23 18.0401 116.852 18.0401C116.508 18.0401 116.231 17.8974 116.02 17.6407C115.8 17.3617 115.688 16.9559 115.688 16.3424C115.688 15.7289 115.8 15.3572 116.02 15.0782C116.231 14.8226 116.508 14.7118 116.852 14.7118C117.23 14.7118 117.481 14.8204 117.784 15.1442L118.748 14.1793C118.238 13.6446 117.652 13.3805 116.852 13.3805ZM128.358 13.3805C126.86 13.3805 125.831 14.4466 125.831 16.3424C125.831 18.6994 127.128 19.3384 128.491 19.3384C129.533 19.3384 130.099 19.0296 130.687 18.4395L129.822 17.5736C129.458 17.9432 129.154 18.1062 128.524 18.1062C127.715 18.1062 127.261 17.5545 127.261 16.8089H130.853V16.1763C130.853 14.5808 129.966 13.3805 128.358 13.3805ZM135.043 13.3805C134.423 13.3805 133.857 13.6797 133.579 14.0131V13.4465H132.183V19.2714H133.613V15.7769C133.613 15.0388 134.101 14.7118 134.545 14.7118C134.797 14.7118 134.985 14.7651 135.143 14.878L136.107 13.6798C135.798 13.4667 135.469 13.3805 135.043 13.3805ZM145.951 13.3805C145.418 13.3805 144.866 13.5796 144.487 13.979V13.4465H143.091V19.2714H144.521V15.7438C144.521 14.9514 145.033 14.7118 145.486 14.7118C145.942 14.7118 146.45 14.9514 146.45 15.7438V19.2714H147.88V15.5436C147.88 14.9088 147.784 14.3827 147.315 13.913C146.991 13.5892 146.528 13.3805 145.951 13.3805ZM151.206 13.3805C150.64 13.3805 150.133 13.5903 149.808 13.913C149.267 14.4604 149.21 15.1953 149.21 16.2093C149.21 17.2264 149.263 17.9592 149.808 18.5056C150.133 18.8294 150.606 19.0381 151.173 19.0381C151.74 19.0381 152.191 18.8645 152.569 18.4395V19.0381C152.569 19.6303 152.268 20.2363 151.405 20.2363C150.914 20.2363 150.596 20.1149 150.274 19.8039L149.376 20.7028C149.974 21.2833 150.582 21.4686 151.472 21.4686C153.024 21.4686 153.999 20.4653 153.999 19.0722V13.4465H152.602V14.0131C152.201 13.5658 151.816 13.3805 151.206 13.3805ZM89.2164 13.4444L91.3448 19.2692H92.475L94.6034 13.4444H93.0741L91.9099 17.039L90.7457 13.4444H89.2164ZM111.531 13.4444V19.2692H112.961V13.4444H111.531ZM136.772 13.4444V17.1721C136.772 17.8111 136.904 18.3671 137.371 18.8368C137.69 19.1616 138.157 19.3363 138.734 19.3363C139.266 19.3363 139.818 19.1403 140.198 18.7367V19.2692H141.595V13.4444H140.132V16.9729C140.132 17.7653 139.621 18.038 139.166 18.038C138.712 18.038 138.235 17.7653 138.235 16.9729V13.4444H136.772ZM63.3768 14.5765C63.8653 14.5765 64.1846 14.863 64.341 15.2092C64.4261 15.4211 64.4623 15.5511 64.474 15.8077H62.2786C62.2892 15.5511 62.3211 15.4211 62.4116 15.2092C62.567 14.863 62.8894 14.5765 63.3768 14.5765ZM79.8047 14.5765C80.2921 14.5765 80.6135 14.863 80.7689 15.2092C80.854 15.4211 80.8913 15.5511 80.9019 15.8077H78.7076C78.7182 15.5511 78.7501 15.4211 78.8406 15.2092C78.9938 14.863 79.3163 14.5765 79.8047 14.5765ZM97.6299 14.5765C98.1173 14.5765 98.4376 14.863 98.5941 15.2092C98.6792 15.4211 98.7165 15.5511 98.7271 15.8077H96.5328C96.5434 15.5511 96.5753 15.4211 96.6658 15.2092C96.8222 14.863 97.1414 14.5765 97.6299 14.5765ZM128.358 14.5765C128.847 14.5765 129.165 14.863 129.323 15.2092C129.408 15.4211 129.445 15.5511 129.456 15.8077H127.261C127.272 15.5511 127.304 15.4211 127.394 15.2092C127.548 14.863 127.869 14.5765 128.358 14.5765ZM151.605 14.7097C152.46 14.7097 152.569 15.4382 152.569 16.2071C152.569 16.9783 152.46 17.7046 151.605 17.7046C150.754 17.7046 150.64 16.9783 150.64 16.2071C150.64 15.4382 150.754 14.7097 151.605 14.7097Z" fill="#333333"/>
<path d="M39.4339 20.4111V34.8012C39.4339 39.6281 37.3035 41.9724 31.1024 41.9724H7.02297C1.68392 41.9724 0.0078125 40.0659 0.0078125 35.4211V29.4493C0.0078125 24.174 4.50615 22.6914 8.99384 22.6914C8.99384 22.6914 27.1564 22.6914 31.7601 22.6914C36.7628 22.6914 39.4339 20.4111 39.4339 20.4111Z" fill="#333333"/>
</svg>
