<svg width="98" height="26" viewBox="0 0 98 26" fill="none" xmlns="http://www.w3.org/2000/svg">
<path d="M91.1066 0.00121218L89.0088 5.78694H95.8007L97.8984 0.00121218H91.1066ZM38.02 7.12154L31.1933 25.9988H37.9851L44.8118 7.12154H38.02ZM30.8016 0.00121218L21.3797 25.9988H28.1716L37.5946 0.00121218H30.8016ZM64.332 10.8308C64.332 8.19796 62.3412 6.7882 59.567 6.7882C57.3624 6.7882 55.3355 7.34458 53.6643 9.0877L54.3395 7.12276H47.7615L40.9348 26H47.7266L51.4956 15.5789C52.2069 13.6128 53.3086 11.9448 55.5133 11.9448C56.4733 11.9448 56.9358 12.2781 56.9358 13.0576C56.9358 13.4285 56.8289 13.911 56.6162 14.5037L52.4567 25.9988H59.2486L63.0885 15.4286C63.6568 13.9085 64.332 11.98 64.332 10.8308ZM75.4972 25.9988H82.3239L78.484 16.208L87.8002 7.12154H80.297L73.3634 13.9449L78.412 0H71.6213L62.1982 25.9976H68.9901L72.1547 17.2457L75.4972 25.9988ZM10.3215 0.00121218L0.898438 25.9988H8.36552L11.6011 17.0978H21.6633L23.9029 10.8672H13.8406L15.4758 6.37969H26.3923L28.7039 0.00121218H10.3215Z" fill="#333333"/>
</svg>
