<svg width="106" height="82" viewBox="0 0 106 82" fill="none" xmlns="http://www.w3.org/2000/svg">
<path d="M73.092 47.3134C68.8452 52.4329 63.8187 56.0313 59.1445 57.7246C54.4578 59.4225 50.2256 59.1781 47.4241 56.7999C44.6202 54.4197 43.6464 50.24 44.4864 45.272C45.324 40.3184 47.9557 34.6849 52.2023 29.5657C56.4491 24.4463 61.4757 20.8478 66.1499 19.1545C70.8363 17.4567 75.0682 17.7009 77.8697 20.0787C80.6654 22.459 81.6392 26.6392 80.8013 31.6074C79.9659 36.561 77.3385 42.1943 73.092 47.3134Z" fill="#333333" stroke="#F7F7F7"/>
<path d="M67.2354 34.8592C67.2354 41.5479 65.67 47.5765 63.164 51.9157C60.6505 56.2679 57.2524 58.8316 53.6021 58.8316C49.9518 58.8316 46.5536 56.2679 44.0401 51.9157C41.5342 47.5765 39.9688 41.5479 39.9688 34.8592C39.9688 28.1704 41.5342 22.1418 44.0401 17.8027C46.5535 13.4507 49.9515 10.887 53.6015 10.8867C57.2522 10.8955 60.6506 13.4642 63.164 17.8163C65.67 22.1556 67.2354 28.1797 67.2354 34.8592Z" fill="#333333" stroke="#F7F7F7"/>
<path d="M53.6546 29.5842C57.9011 34.7033 60.5285 40.3367 61.3639 45.2903C62.2018 50.2585 61.228 54.4387 58.4323 56.819C55.6399 59.1964 51.4084 59.4412 46.719 57.7431C42.0425 56.0498 37.0116 52.4513 32.7649 47.332C28.5184 42.2129 25.8911 36.5795 25.0556 31.6259C24.2178 26.6578 25.1915 22.4777 27.987 20.0974C30.7886 17.7195 35.0206 17.4753 39.7071 19.173C44.3813 20.8664 49.4078 24.4648 53.6546 29.5842Z" fill="#333333" stroke="#F7F7F7"/>
<path fill-rule="evenodd" clip-rule="evenodd" d="M29.4522 67.2036C28.1802 67.2036 27.2969 68.133 27.2969 69.4632C27.2969 70.7752 28.1625 71.7045 29.4522 71.7045C30.7419 71.7045 31.6075 70.7752 31.6075 69.4632C31.5899 68.1512 30.7242 67.2036 29.4522 67.2036ZM29.4522 70.6294C28.8515 70.6294 28.4805 70.0281 28.4805 69.445C28.4805 68.8618 28.8515 68.2605 29.4522 68.2605C30.0529 68.2605 30.4239 68.8618 30.4239 69.445C30.4062 70.0281 30.0529 70.6294 29.4522 70.6294Z" fill="#333333"/>
<path fill-rule="evenodd" clip-rule="evenodd" d="M34.0147 67.2036C32.7427 67.2036 31.8594 68.133 31.8594 69.4632C31.8594 70.7752 32.725 71.7045 34.0147 71.7045C35.3044 71.7045 36.17 70.7752 36.17 69.4632C36.17 68.1512 35.3044 67.2036 34.0147 67.2036ZM34.0147 70.6294C33.414 70.6294 33.043 70.0281 33.043 69.445C33.043 68.8618 33.414 68.2605 34.0147 68.2605C34.6154 68.2605 34.9864 68.8618 34.9864 69.445C34.9864 70.0281 34.6154 70.6294 34.0147 70.6294Z" fill="#333333"/>
<path fill-rule="evenodd" clip-rule="evenodd" d="M41.9983 69.1533H43.3409C43.3233 69.9369 42.6696 70.6293 41.9099 70.6293C40.7263 70.6293 40.1256 69.4267 40.1256 68.3516C40.1256 67.2765 40.7086 66.0373 41.8923 66.0373C42.5459 66.0373 43.0759 66.4929 43.3233 67.076L44.4009 66.4747C43.9239 65.4907 42.9876 64.9258 41.9099 64.9258C40.0373 64.9258 38.8359 66.5111 38.8359 68.3698C38.8359 70.1556 40.0019 71.7591 41.8216 71.7591C43.7649 71.7591 44.6836 70.1373 44.6836 68.2969V68.1329H41.9806V69.1533H41.9983Z" fill="#333333"/>
<path fill-rule="evenodd" clip-rule="evenodd" d="M47.1553 67.2036C45.8833 67.2036 45 68.133 45 69.4632C45 70.7752 45.8657 71.7045 47.1553 71.7045C48.445 71.7045 49.3107 70.7752 49.3107 69.4632C49.3107 68.1512 48.4273 67.2036 47.1553 67.2036ZM47.1553 70.6294C46.5547 70.6294 46.1837 70.0281 46.1837 69.445C46.1837 68.8618 46.5547 68.2605 47.1553 68.2605C47.756 68.2605 48.127 68.8618 48.127 69.445C48.127 70.0281 47.756 70.6294 47.1553 70.6294Z" fill="#333333"/>
<path fill-rule="evenodd" clip-rule="evenodd" d="M51.71 67.2036C50.438 67.2036 49.5547 68.133 49.5547 69.4632C49.5547 70.7752 50.4204 71.7045 51.71 71.7045C52.9997 71.7045 53.8654 70.7752 53.8654 69.4632C53.8654 68.1512 52.9997 67.2036 51.71 67.2036ZM51.71 70.6294C51.1094 70.6294 50.7384 70.0281 50.7384 69.445C50.7384 68.8618 51.1094 68.2605 51.71 68.2605C52.3107 68.2605 52.6817 68.8618 52.6817 69.445C52.6817 70.0281 52.3107 70.6294 51.71 70.6294Z" fill="#333333"/>
<path fill-rule="evenodd" clip-rule="evenodd" d="M57.1361 67.7321C56.8535 67.4041 56.4295 67.2036 56.0055 67.2036C54.8218 67.2036 54.1328 68.3152 54.1328 69.4268C54.1328 70.5748 54.8218 71.7045 56.0231 71.7045C56.4471 71.7045 56.8888 71.5223 57.1185 71.1761H57.1361V71.577H58.3021V64.2881H57.1361V67.7321ZM56.2881 70.6294C55.6875 70.6294 55.3165 70.0099 55.3165 69.445C55.3165 68.8801 55.6875 68.2605 56.2881 68.2605C56.8888 68.2605 57.2598 68.8801 57.2598 69.445C57.2421 70.0281 56.8888 70.6294 56.2881 70.6294Z" fill="#333333"/>
<path fill-rule="evenodd" clip-rule="evenodd" d="M64.8781 65.0898H61.1328V66.1832H62.3871V71.5587H63.6238V66.1832H64.8781V65.0898Z" fill="#333333"/>
<path fill-rule="evenodd" clip-rule="evenodd" d="M66.3428 67.2036C65.0708 67.2036 64.1875 68.133 64.1875 69.4632C64.1875 70.7752 65.0532 71.7045 66.3428 71.7045C67.6325 71.7045 68.4982 70.7752 68.4982 69.4632C68.4805 68.1512 67.6148 67.2036 66.3428 67.2036ZM66.3428 70.6294C65.7422 70.6294 65.3712 70.0281 65.3712 69.445C65.3712 68.8618 65.7422 68.2605 66.3428 68.2605C66.9435 68.2605 67.3145 68.8618 67.3145 69.445C67.2968 70.0281 66.9435 70.6294 66.3428 70.6294Z" fill="#333333"/>
<path fill-rule="evenodd" clip-rule="evenodd" d="M74.3264 69.1533H75.6514C75.6337 69.9369 74.9801 70.6293 74.2204 70.6293C73.0367 70.6293 72.4537 69.4267 72.4537 68.3516C72.4537 67.2765 73.0367 66.0373 74.2204 66.0373C74.8741 66.0373 75.4041 66.4929 75.6514 67.076L76.7291 66.4747C76.2521 65.4907 75.3157 64.9258 74.2381 64.9258C72.3654 64.9258 71.1641 66.5111 71.1641 68.3698C71.1641 70.1556 72.3301 71.7591 74.1497 71.7591C76.0931 71.7591 77.0117 70.1373 77.0117 68.2969V68.1329H74.3087V69.1533H74.3264Z" fill="#333333"/>
<path fill-rule="evenodd" clip-rule="evenodd" d="M79.4678 67.2036C78.1958 67.2036 77.3125 68.133 77.3125 69.4632C77.3125 70.7752 78.1782 71.7045 79.4678 71.7045C80.7575 71.7045 81.6232 70.7752 81.6232 69.4632C81.6232 68.1512 80.7398 67.2036 79.4678 67.2036ZM79.4678 70.6294C78.8672 70.6294 78.4962 70.0281 78.4962 69.445C78.4962 68.8618 78.8672 68.2605 79.4678 68.2605C80.0685 68.2605 80.4395 68.8618 80.4395 69.445C80.4395 70.0281 80.0685 70.6294 79.4678 70.6294Z" fill="#333333"/>
<path fill-rule="evenodd" clip-rule="evenodd" d="M28.0052 65.0898H24.2422V66.1832H25.5142V71.5587H26.7332V66.1832H28.0052V65.0898Z" fill="#333333"/>
</svg>
